<svg width="17" height="16" viewBox="0 0 17 16" fill="none" xmlns="http://www.w3.org/2000/svg">
<path d="M6.10004 11.3333L8.50004 8.93334L10.9 11.3333L11.8334 10.4L9.43337 8L11.8334 5.6L10.9 4.66667L8.50004 7.06667L6.10004 4.66667L5.16671 5.6L7.56671 8L5.16671 10.4L6.10004 11.3333ZM8.50004 14.6667C7.57782 14.6667 6.71115 14.4916 5.90004 14.1413C5.08893 13.7916 4.38337 13.3167 3.78337 12.7167C3.18337 12.1167 2.70849 11.4111 2.35871 10.6C2.00849 9.78889 1.83337 8.92222 1.83337 8C1.83337 7.07778 2.00849 6.21111 2.35871 5.4C2.70849 4.58889 3.18337 3.88334 3.78337 3.28334C4.38337 2.68334 5.08893 2.20822 5.90004 1.858C6.71115 1.50822 7.57782 1.33334 8.50004 1.33334C9.42226 1.33334 10.2889 1.50822 11.1 1.858C11.9112 2.20822 12.6167 2.68334 13.2167 3.28334C13.8167 3.88334 14.2916 4.58889 14.6414 5.4C14.9916 6.21111 15.1667 7.07778 15.1667 8C15.1667 8.92222 14.9916 9.78889 14.6414 10.6C14.2916 11.4111 13.8167 12.1167 13.2167 12.7167C12.6167 13.3167 11.9112 13.7916 11.1 14.1413C10.2889 14.4916 9.42226 14.6667 8.50004 14.6667Z" fill="#EB5757"/>
</svg>
